<svg width="24" height="25" viewBox="0 0 24 25" fill="none" xmlns="http://www.w3.org/2000/svg">
<path d="M23.3791 0.976713C22.9851 0.619714 22.4651 0.452714 21.9491 0.512714C15.3321 1.30971 12.8961 6.57571 12.0051 10.0007C12.0031 10.0007 12.0011 9.99971 11.9991 9.99971C11.9971 9.99971 11.9951 10.0007 11.9931 10.0007C11.1041 6.57471 8.66812 1.30971 2.05112 0.512714C1.53812 0.455714 1.01612 0.619714 0.621123 0.976713C0.213123 1.34771 -0.0138768 1.87571 0.000123156 2.42671C0.0891232 5.90771 1.19512 8.64471 3.28912 10.5597C6.19112 13.2137 10.0931 13.4917 11.5001 13.4997V23.9987C11.5001 24.2747 11.7241 24.4987 12.0001 24.4987C12.2761 24.4987 12.5001 24.2747 12.5001 23.9987V13.4997C13.9071 13.4917 17.8101 13.2137 20.7111 10.5597C22.8051 8.64371 23.9111 5.90771 24.0001 2.42671C24.0141 1.87571 23.7871 1.34771 23.3791 0.976713ZM3.95812 9.81571C2.07612 8.09171 1.08112 5.59671 1.00012 2.40171C0.993123 2.14171 1.10112 1.89171 1.29412 1.71671C1.47412 1.55171 1.69612 1.47571 1.93212 1.50571C9.90212 2.46571 11.2441 10.3657 11.4601 12.4977C10.1441 12.4757 6.54412 12.1867 3.95812 9.81671V9.81571ZM20.0421 9.81571C17.4551 12.1857 13.8561 12.4747 12.5401 12.4967C12.7571 10.3657 14.0991 2.46571 22.0681 1.50471C22.1001 1.50071 22.1311 1.49871 22.1631 1.49871C22.3601 1.49871 22.5511 1.57371 22.7061 1.71571C22.8991 1.89171 23.0071 2.14071 23.0001 2.40171C22.9191 5.59671 21.9241 8.09071 20.0421 9.81571Z" fill="#202020"/>
</svg>
