<svg width="24" height="25" viewBox="0 0 24 25" fill="none" xmlns="http://www.w3.org/2000/svg">
<g clip-path="url(#clip0_69_516)">
<path d="M22.5 0.5H13.5C13.224 0.5 13 0.724 13 1C13 1.276 13.224 1.5 13.5 1.5H14V20.5C14 22.706 15.794 24.5 18 24.5C20.206 24.5 22 22.706 22 20.5V1.5H22.5C22.776 1.5 23 1.276 23 1C23 0.724 22.776 0.5 22.5 0.5ZM18 23.5C16.346 23.5 15 22.154 15 20.5V10.5H21V20.5C21 22.154 19.654 23.5 18 23.5ZM21 9.5H15V1.5H21V9.5ZM10.5 0.5H1.5C1.224 0.5 1 0.724 1 1C1 1.276 1.224 1.5 1.5 1.5H2V20.5C2 22.706 3.794 24.5 6 24.5C8.206 24.5 10 22.706 10 20.5V1.5H10.5C10.776 1.5 11 1.276 11 1C11 0.724 10.776 0.5 10.5 0.5ZM6 23.5C4.346 23.5 3 22.154 3 20.5V10.5H9V20.5C9 22.154 7.654 23.5 6 23.5ZM9 9.5H3V1.5H9V9.5Z" fill="#202020"/>
<circle cx="5" cy="13.5" r="1" fill="#202020"/>
<circle cx="7" cy="19.5" r="1" fill="#202020"/>
</g>
<defs>
<clipPath id="clip0_69_516">
<rect width="24" height="24" fill="white" transform="translate(0 0.5)"/>
</clipPath>
</defs>
</svg>
