<svg width="24" height="25" viewBox="0 0 24 25" fill="none" xmlns="http://www.w3.org/2000/svg">
<path d="M19.443 10.122C19.786 9.487 20 8.771 20 8C20 5.519 17.981 3.5 15.5 3.5C13.019 3.5 11 5.519 11 8C11 8.529 11.108 9.029 11.276 9.5H7.5C3.364 9.5 0 12.864 0 17C0 21.136 3.364 24.5 7.5 24.5H16.5C20.636 24.5 24 21.136 24 17C24 14 22.178 11.296 19.443 10.122ZM15.5 4.5C17.43 4.5 19 6.07 19 8C19 9.93 17.43 11.5 15.5 11.5C13.57 11.5 12 9.93 12 8C12 6.07 13.57 4.5 15.5 4.5ZM16.5 23.5H7.5C3.916 23.5 1 20.584 1 17C1 13.416 3.916 10.5 7.5 10.5H11.762C12.57 11.705 13.944 12.5 15.5 12.5C16.846 12.5 18.041 11.894 18.867 10.955C21.342 11.925 23 14.331 23 17C23 20.584 20.084 23.5 16.5 23.5ZM13 14C13 14.276 12.776 14.5 12.5 14.5H7.5C6.122 14.5 5 15.621 5 17C5 18.379 6.122 19.5 7.5 19.5C7.776 19.5 8 19.724 8 20C8 20.276 7.776 20.5 7.5 20.5C5.57 20.5 4 18.93 4 17C4 15.07 5.57 13.5 7.5 13.5H12.5C12.776 13.5 13 13.724 13 14ZM7 6.5C8.654 6.5 10 5.154 10 3.5C10 1.846 8.654 0.5 7 0.5C5.346 0.5 4 1.846 4 3.5C4 5.154 5.346 6.5 7 6.5ZM7 1.5C8.103 1.5 9 2.397 9 3.5C9 4.603 8.103 5.5 7 5.5C5.897 5.5 5 4.603 5 3.5C5 2.397 5.897 1.5 7 1.5ZM22 4.5C23.103 4.5 24 3.603 24 2.5C24 1.397 23.103 0.5 22 0.5C20.897 0.5 20 1.397 20 2.5C20 3.603 20.897 4.5 22 4.5ZM22 1.5C22.551 1.5 23 1.948 23 2.5C23 3.052 22.551 3.5 22 3.5C21.449 3.5 21 3.052 21 2.5C21 1.948 21.449 1.5 22 1.5Z" fill="#202020"/>
</svg>
