<svg width="20" height="20" viewBox="0 0 20 20" fill="none" xmlns="http://www.w3.org/2000/svg">
<path d="M9.99998 7.29134C9.28169 7.29134 8.59281 7.57668 8.0849 8.08459C7.57699 8.5925 7.29165 9.28138 7.29165 9.99967C7.29165 10.718 7.57699 11.4068 8.0849 11.9148C8.59281 12.4227 9.28169 12.708 9.99998 12.708C10.7183 12.708 11.4072 12.4227 11.9151 11.9148C12.423 11.4068 12.7083 10.718 12.7083 9.99967C12.7083 9.28138 12.423 8.5925 11.9151 8.08459C11.4072 7.57668 10.7183 7.29134 9.99998 7.29134Z" fill="#F89EB8"/>
<path fill-rule="evenodd" clip-rule="evenodd" d="M5.64168 2.56833C8.53836 2.24724 11.4617 2.24724 14.3583 2.56833C15.9408 2.74499 17.2167 3.99083 17.4025 5.57916C17.746 8.51637 17.746 11.4836 17.4025 14.4208C17.2167 16.0092 15.9408 17.255 14.3592 17.4325C11.4622 17.7537 8.53864 17.7537 5.64168 17.4325C4.05918 17.255 2.78335 16.0092 2.59751 14.4217C2.25395 11.4842 2.25395 8.51665 2.59751 5.57916C2.78335 3.99083 4.05918 2.74499 5.64168 2.56833ZM14.1667 4.99999C13.9457 4.99999 13.7337 5.08779 13.5774 5.24407C13.4211 5.40035 13.3333 5.61231 13.3333 5.83333C13.3333 6.05434 13.4211 6.2663 13.5774 6.42258C13.7337 6.57886 13.9457 6.66666 14.1667 6.66666C14.3877 6.66666 14.5997 6.57886 14.7559 6.42258C14.9122 6.2663 15 6.05434 15 5.83333C15 5.61231 14.9122 5.40035 14.7559 5.24407C14.5997 5.08779 14.3877 4.99999 14.1667 4.99999ZM6.04168 9.99999C6.04168 8.95018 6.45872 7.94336 7.20105 7.20103C7.94338 6.4587 8.9502 6.04166 10 6.04166C11.0498 6.04166 12.0566 6.4587 12.799 7.20103C13.5413 7.94336 13.9583 8.95018 13.9583 9.99999C13.9583 11.0498 13.5413 12.0566 12.799 12.799C12.0566 13.5413 11.0498 13.9583 10 13.9583C8.9502 13.9583 7.94338 13.5413 7.20105 12.799C6.45872 12.0566 6.04168 11.0498 6.04168 9.99999Z" fill="#F89EB8"/>
</svg>
