<svg width="224" height="24" viewBox="0 0 224 24" fill="none" xmlns="http://www.w3.org/2000/svg">
<path d="M24.0934 6.01172C21.4689 6.01172 19.1235 7.37206 19.1235 9.88538C19.1235 12.7677 23.2831 12.9668 23.2831 14.4148C23.2831 15.0245 22.5844 15.5702 21.3911 15.5702C19.6975 15.5702 18.4317 14.8076 18.4317 14.8076L17.8901 17.3438C17.8901 17.3438 19.3482 17.988 21.2842 17.988C24.1536 17.988 26.4115 16.5609 26.4115 14.0046C26.4115 10.9589 22.2346 10.7657 22.2346 9.42175C22.2346 8.94415 22.8081 8.42084 23.9981 8.42084C25.3407 8.42084 26.4361 8.97546 26.4361 8.97546L26.9662 6.5259C26.9662 6.5259 25.7743 6.01172 24.0934 6.01172ZM0.0816164 6.19659L0.0180664 6.56634C0.0180664 6.56634 1.12221 6.76841 2.11666 7.17151C3.39711 7.63374 3.48832 7.90282 3.70397 8.73859L6.05387 17.7974H9.20393L14.0568 6.19659H10.914L7.79572 14.084L6.52328 7.39826C6.40658 6.63309 5.81549 6.19659 5.09196 6.19659H0.0816164ZM15.3206 6.19659L12.8552 17.7974H15.8521L18.3089 6.19659H15.3206ZM32.0357 6.19659C31.313 6.19659 30.9301 6.5835 30.6492 7.25961L26.2584 17.7974H29.4013L30.0093 16.0411H33.8382L34.208 17.7974H36.9811L34.5618 6.19659H32.0357ZM32.4445 9.33076L33.376 13.6839H30.8803L32.4445 9.33076Z" fill="white"/>
<path d="M73.639 6.65404C74.4485 7.28978 75.1028 8.10123 75.5525 9.02704C76.0023 9.95284 76.2356 10.9688 76.235 11.998C76.2352 13.027 76.0015 14.0426 75.5516 14.9681C75.1017 15.8935 74.4474 16.7046 73.638 17.34C72.8287 16.7044 72.1745 15.8931 71.7247 14.9675C71.275 14.0419 71.0415 13.0261 71.042 11.997C71.0414 10.9678 71.2748 9.95184 71.7245 9.02604C72.1742 8.10023 72.8286 7.28878 73.638 6.65304M72.768 6.07104C71.9111 6.80278 71.2233 7.71195 70.7523 8.73565C70.2812 9.75936 70.0382 10.8732 70.04 12C70.0387 13.1264 70.2819 14.2396 70.7529 15.2628C71.2239 16.2859 71.9114 17.1946 72.768 17.926C71.7334 18.5068 70.5648 18.8067 69.3784 18.7959C68.1919 18.7851 67.029 18.4639 66.0051 17.8644C64.9813 17.2648 64.1322 16.4077 63.5422 15.3783C62.9523 14.3489 62.642 13.183 62.6423 11.9965C62.6426 10.81 62.9535 9.64424 63.5439 8.61511C64.1344 7.58599 64.9839 6.72932 66.0081 6.13027C67.0322 5.53123 68.1954 5.21066 69.3818 5.20045C70.5682 5.19023 71.7367 5.49072 72.771 6.07204M74.513 17.926C75.3694 17.1945 76.0568 16.2858 76.5276 15.2627C76.9984 14.2395 77.2415 13.1263 77.24 12C77.2414 10.8732 76.998 9.75947 76.5267 8.73594C76.0553 7.7124 75.3672 6.80348 74.51 6.07204C75.5443 5.49072 76.7128 5.19023 77.8992 5.20045C79.0857 5.21066 80.2488 5.53123 81.2729 6.13027C82.2971 6.72932 83.1466 7.58599 83.7371 8.61511C84.3276 9.64424 84.6384 10.81 84.6387 11.9965C84.639 13.183 84.3288 14.3489 83.7388 15.3783C83.1489 16.4077 82.2998 17.2648 81.2759 17.8644C80.2521 18.4639 79.0891 18.7851 77.9027 18.7959C76.7162 18.8067 75.5476 18.5068 74.513 17.926Z" fill="white"/>
<path d="M120.45 7.93585C121.573 7.93585 122.432 8.36983 123.029 9.23779L122.963 9.27926C122.919 9.31243 122.872 9.34836 122.822 9.38706C122.772 9.42023 122.709 9.46999 122.631 9.53633C122.56 9.59714 122.488 9.66901 122.416 9.75194C122.344 9.82933 122.267 9.91779 122.184 10.0173C122.106 10.1113 122.034 10.2219 121.968 10.349C121.907 10.4706 121.849 10.6005 121.794 10.7388C121.744 10.8714 121.703 11.0235 121.669 11.1949C121.642 11.3662 121.628 11.5404 121.628 11.7173C121.628 12.0822 121.689 12.4222 121.81 12.7373C121.932 13.0469 122.07 13.2957 122.225 13.4836C122.38 13.6716 122.551 13.8374 122.739 13.9812C122.927 14.1249 123.068 14.2217 123.162 14.2714C123.262 14.3212 123.331 14.3516 123.369 14.3626C123.358 14.4069 123.325 14.5036 123.27 14.6529C123.22 14.8022 123.121 15.0316 122.971 15.3412C122.828 15.6508 122.665 15.9438 122.482 16.2202C122.305 16.4745 122.159 16.6763 122.043 16.8256C121.927 16.9693 121.78 17.1296 121.603 17.3065C121.426 17.4834 121.241 17.6134 121.048 17.6963C120.86 17.7792 120.661 17.8207 120.45 17.8207C120.163 17.8207 119.823 17.735 119.43 17.5636C119.038 17.3922 118.668 17.3065 118.319 17.3065C117.965 17.3065 117.578 17.395 117.158 17.5719C116.738 17.7488 116.404 17.8373 116.155 17.8373C115.79 17.8373 115.458 17.7018 115.16 17.4309C114.867 17.16 114.524 16.7454 114.131 16.187C113.733 15.6176 113.404 14.9431 113.145 14.1636C112.89 13.3786 112.763 12.6074 112.763 11.85C112.763 11.2418 112.857 10.6862 113.045 10.1832C113.233 9.68007 113.482 9.27096 113.791 8.95584C114.101 8.64072 114.449 8.39747 114.836 8.22609C115.223 8.05471 115.624 7.96902 116.039 7.96902C116.348 7.96902 116.738 8.063 117.208 8.25097C117.683 8.43894 117.999 8.53292 118.153 8.53292C118.286 8.53292 118.609 8.43341 119.124 8.23438C119.638 8.03536 120.08 7.93585 120.45 7.93585ZM119.994 6.8661C119.773 7.13146 119.494 7.3526 119.157 7.52951C118.825 7.70642 118.513 7.79487 118.22 7.79487C118.159 7.79487 118.101 7.78935 118.046 7.77829C118.029 7.71195 118.021 7.63179 118.021 7.5378C118.021 7.22268 118.09 6.90756 118.228 6.59244C118.366 6.27732 118.535 6.00366 118.734 5.77147C118.972 5.49505 119.267 5.26562 119.621 5.08318C119.981 4.89522 120.323 4.7957 120.649 4.78465C120.666 4.85652 120.674 4.94221 120.674 5.04172C120.674 5.6996 120.448 6.30773 119.994 6.8661ZM126.629 5.72171H131.455C132.65 5.72171 133.617 6.09488 134.358 6.84122C135.104 7.58756 135.477 8.56332 135.477 9.76852C135.477 10.9516 135.093 11.9135 134.325 12.6544C133.562 13.3952 132.575 13.7656 131.364 13.7656H128.769V17.688H126.629V5.72171ZM128.769 7.51292V11.9909H130.883C131.652 11.9909 132.246 11.7975 132.666 11.4105C133.092 11.0235 133.305 10.4762 133.305 9.76852C133.305 9.03877 133.095 8.4804 132.674 8.09341C132.26 7.70642 131.666 7.51292 130.892 7.51292H128.769ZM139.492 16.2202C140.111 16.2202 140.628 16.0433 141.042 15.6895C141.457 15.3301 141.664 14.8878 141.664 14.3626V13.6412L139.616 13.7739C138.488 13.8457 137.924 14.2548 137.924 15.0012C137.924 15.3771 138.068 15.6756 138.356 15.8968C138.649 16.1124 139.027 16.2202 139.492 16.2202ZM138.886 17.8373C138.002 17.8373 137.28 17.5885 136.722 17.0909C136.164 16.5934 135.884 15.9355 135.884 15.1173C135.884 14.2991 136.18 13.6578 136.772 13.1934C137.369 12.729 138.22 12.4636 139.326 12.3973L141.664 12.2563V11.4934C141.664 11.0456 141.518 10.7028 141.225 10.4651C140.932 10.2274 140.509 10.1085 139.956 10.1085C139.481 10.1085 139.088 10.1914 138.779 10.3573C138.469 10.5176 138.267 10.7498 138.173 11.0539H136.233C136.316 10.2523 136.703 9.61649 137.394 9.14657C138.09 8.67113 138.978 8.43341 140.056 8.43341C141.217 8.43341 142.112 8.70154 142.742 9.23779C143.378 9.77405 143.696 10.5259 143.696 11.4934V17.688H141.714V16.4441H141.573C141.319 16.8808 140.954 17.2236 140.479 17.4724C140.009 17.7156 139.478 17.8373 138.886 17.8373ZM145.986 20.9802C145.56 20.9802 145.289 20.9691 145.173 20.947V19.2636C145.278 19.2857 145.466 19.2968 145.737 19.2968C146.174 19.2968 146.519 19.2055 146.773 19.0231C147.033 18.8407 147.229 18.5421 147.362 18.1275L147.47 17.7295L144.228 8.61584H146.483L148.606 15.6978H148.747L150.862 8.61584H153.034L149.759 17.9782C149.377 19.1005 148.907 19.88 148.349 20.3168C147.796 20.759 147.008 20.9802 145.986 20.9802Z" fill="white"/>
<path d="M199.75 11.7582V16.9832H198.081V4.08057H202.506C203.628 4.08057 204.584 4.45193 205.367 5.19465C206.167 5.93737 206.567 6.84419 206.567 7.91509C206.567 9.0119 206.167 9.91871 205.367 10.6528C204.593 11.3869 203.637 11.7496 202.506 11.7496H199.75V11.7582ZM199.75 5.66965V10.1692H202.541C203.202 10.1692 203.758 9.94462 204.193 9.50417C204.637 9.06372 204.863 8.52826 204.863 7.92372C204.863 7.32782 204.637 6.80101 204.193 6.36055C203.758 5.90283 203.211 5.67828 202.541 5.67828H199.75V5.66965Z" fill="white"/>
<path d="M210.932 7.86328C212.167 7.86328 213.141 8.19146 213.854 8.84782C214.567 9.50418 214.923 10.4024 214.923 11.5424V16.9832H213.332V15.7569H213.263C212.576 16.7673 211.654 17.2682 210.506 17.2682C209.524 17.2682 208.706 16.9832 208.046 16.4046C207.385 15.826 207.054 15.1091 207.054 14.2455C207.054 13.3301 207.402 12.6046 208.098 12.0692C208.793 11.5251 209.724 11.2574 210.88 11.2574C211.871 11.2574 212.689 11.4387 213.323 11.8014V11.4214C213.323 10.8428 213.097 10.3592 212.636 9.95327C212.176 9.54736 211.637 9.34873 211.019 9.34873C210.089 9.34873 209.35 9.73736 208.811 10.5233L207.341 9.60781C208.15 8.44191 209.35 7.86328 210.932 7.86328ZM208.776 14.2714C208.776 14.7032 208.959 15.066 209.332 15.351C209.698 15.636 210.132 15.7828 210.628 15.7828C211.332 15.7828 211.958 15.5237 212.506 15.0055C213.054 14.4873 213.332 13.8828 213.332 13.1832C212.81 12.7773 212.089 12.5701 211.158 12.5701C210.48 12.5701 209.915 12.7342 209.463 13.0537C209.002 13.3905 208.776 13.7964 208.776 14.2714Z" fill="white"/>
<path d="M224 8.14844L218.435 20.8611H216.714L218.783 16.4134L215.114 8.14844H216.931L219.574 14.4875H219.609L222.183 8.14844H224Z" fill="white"/>
<path d="M193.11 10.7048C193.11 10.1642 193.061 9.64687 192.971 9.14941H185.973V11.9994L190.003 12.0003C189.84 12.9485 189.314 13.7569 188.508 14.2958V16.1448H190.907C192.307 14.8572 193.11 12.9537 193.11 10.7048Z" fill="white"/>
<path d="M188.508 14.2954C187.84 14.7428 186.981 15.0045 185.975 15.0045C184.031 15.0045 182.383 13.7039 181.792 11.9507H179.318V13.8576C180.544 16.274 183.064 17.9322 185.975 17.9322C187.987 17.9322 189.677 17.275 190.907 16.1436L188.508 14.2954Z" fill="white"/>
<path d="M181.559 10.5363C181.559 10.044 181.642 9.56813 181.793 9.12077V7.21387H179.318C178.811 8.21309 178.526 9.34099 178.526 10.5363C178.526 11.7315 178.812 12.8594 179.318 13.8586L181.793 11.9517C181.642 11.5044 181.559 11.0285 181.559 10.5363Z" fill="white"/>
<path d="M185.975 6.06687C187.073 6.06687 188.056 6.44255 188.833 7.17663L190.958 5.06678C189.667 3.87238 187.984 3.13916 185.975 3.13916C183.064 3.13916 180.544 4.79733 179.318 7.21377L181.792 9.12067C182.383 7.3675 184.031 6.06687 185.975 6.06687Z" fill="white"/>
</svg>
