<svg width="15" height="18" viewBox="0 0 15 18" fill="none" xmlns="http://www.w3.org/2000/svg">
<path d="M2.12738 17.1919C1.85404 17.1914 1.58554 17.1198 1.34829 16.984C0.814051 16.6813 0.481934 16.0936 0.481934 15.4557V2.54494C0.481934 1.90519 0.814051 1.31931 1.34829 1.01658C1.59119 0.876982 1.86713 0.805193 2.14726 0.808718C2.4274 0.812242 2.70145 0.890949 2.94076 1.03661L13.975 7.64156C14.2049 7.78576 14.3945 7.986 14.5259 8.2235C14.6573 8.461 14.7263 8.72799 14.7263 8.99942C14.7263 9.27085 14.6573 9.53783 14.5259 9.77534C14.3945 10.0128 14.2049 10.2131 13.975 10.3573L2.93898 16.964C2.69407 17.1121 2.41356 17.1908 2.12738 17.1919Z" fill="white"/>
</svg>
