<svg width="9" height="8" viewBox="0 0 9 8" fill="none" xmlns="http://www.w3.org/2000/svg">
<path d="M8.22266 3.94736C8.22266 4.07168 8.17327 4.19091 8.08536 4.27881C7.99746 4.36672 7.87823 4.41611 7.75391 4.41611H4.78516V7.38486C4.78516 7.50918 4.73577 7.62841 4.64786 7.71631C4.55995 7.80422 4.44073 7.85361 4.31641 7.85361C4.19209 7.85361 4.07286 7.80422 3.98495 7.71631C3.89704 7.62841 3.84766 7.50918 3.84766 7.38486V4.41611H0.878906C0.754586 4.41611 0.635358 4.36672 0.54745 4.27881C0.459542 4.19091 0.410156 4.07168 0.410156 3.94736C0.410156 3.82304 0.459542 3.70381 0.54745 3.6159C0.635358 3.52799 0.754586 3.47861 0.878906 3.47861H3.84766V0.509857C3.84766 0.385537 3.89704 0.266309 3.98495 0.178401C4.07286 0.0904932 4.19209 0.0411072 4.31641 0.0411072C4.44073 0.0411072 4.55995 0.0904932 4.64786 0.178401C4.73577 0.266309 4.78516 0.385537 4.78516 0.509857V3.47861H7.75391C7.87823 3.47861 7.99746 3.52799 8.08536 3.6159C8.17327 3.70381 8.22266 3.82304 8.22266 3.94736Z" fill="#202020"/>
</svg>
