<svg width="24" height="24" viewBox="0 0 24 24" fill="none" xmlns="http://www.w3.org/2000/svg">
<g clip-path="url(#clip0_161_2901)">
<path d="M24 12C24 5.5 18.897 0 12 0C5.383 0 0 5.383 0 12C0 18.617 5.383 24 12 24C19.179 24 24 18.333 24 12ZM22.969 12.833L19.786 11.546C19.717 11.511 19.666 11.449 19.647 11.373L19.02 8.867C18.992 8.754 19.044 8.63 19.16 8.563L21.766 6.94C22.555 8.456 23.001 10.177 23.001 12C23.001 12.28 22.989 12.558 22.969 12.833ZM12 1C12.095 1 12.191 1.001 12.285 1.004C11.642 1.866 10.645 3.208 10.46 3.494C10.067 4.102 10.055 4.868 10.428 5.491L11.161 6.713L10.462 6.363C9.766 6.014 8.932 6.151 8.387 6.7L7.858 7.229C7.518 7.568 7.332 8.02 7.332 8.5C7.332 8.671 7.355 8.839 7.402 9H5.602C5.493 9 5.386 8.955 5.308 8.872L2.683 6.16C4.63 3.063 8.079 1 12 1ZM12 23C5.935 23 1 18.065 1 12C1 10.228 1.422 8.553 2.169 7.068L4.585 9.563C4.849 9.84 5.219 10 5.602 10H7.55C7.84 10 8.113 10.113 8.319 10.318L8.691 10.691C8.888 10.888 9.001 11.16 9.001 11.437V12.4C9.001 12.789 9.152 13.153 9.426 13.425L10.615 14.615C10.864 14.864 11.001 15.195 11.001 15.546V17.911C11.001 18.512 11.49 19.001 12.091 19.001H12.304C12.728 19.001 13.116 18.752 13.293 18.368L15.534 13.513C15.801 12.936 15.596 12.248 15.056 11.912L12.494 10.309C12.171 10.108 11.799 10.001 11.418 10.001H9.987C9.677 10.001 9.375 9.876 9.157 9.657L8.565 9.065C8.415 8.915 8.332 8.714 8.332 8.501C8.332 8.288 8.415 8.087 8.565 7.937L9.095 7.407C9.337 7.164 9.708 7.104 10.015 7.259L10.894 7.698C11.258 7.882 11.698 7.81 11.979 7.522C12.286 7.215 12.345 6.743 12.124 6.373L11.286 4.977C11.11 4.683 11.116 4.323 11.301 4.037C11.492 3.742 12.798 1.99 13.465 1.098C16.736 1.535 19.557 3.414 21.265 6.074L18.646 7.705C18.16 7.985 17.915 8.562 18.05 9.108L18.677 11.613C18.766 11.973 19.008 12.275 19.376 12.456L22.843 13.859C21.957 19.042 17.433 22.999 12.001 22.999L12 23ZM11.321 13.907L10.131 12.716C10.047 12.632 10 12.52 10 12.399V11.436C10 11.289 9.983 11.142 9.952 10.999C9.964 10.999 9.974 10.999 9.986 10.999H11.417C11.61 10.999 11.8 11.053 11.965 11.155L14.527 12.758C14.639 12.828 14.681 12.971 14.626 13.091L12.304 17.999H12.091C12.042 17.999 12.001 17.958 12.001 17.909V15.544C12.001 14.926 11.76 14.344 11.322 13.906L11.321 13.907Z" fill="black"/>
</g>
<defs>
<clipPath id="clip0_161_2901">
<rect width="24" height="24" fill="white"/>
</clipPath>
</defs>
</svg>
