<svg width="24" height="21" viewBox="0 0 24 21" fill="none" xmlns="http://www.w3.org/2000/svg">
<path d="M19.5 0H7.5C5.01 0 3 2.01 3 4.5V13.5C3 15.99 5.01 18 7.5 18H19.5C21.99 18 24 15.99 24 13.5V4.5C24 2.01 21.99 0 19.5 0ZM19.5 1C20.45 1 21.32 1.38 21.95 2L15.98 7.97C14.61 9.34 12.4 9.34 11.03 7.97L5.05 2C5.68 1.38 6.55 1 7.5 1H19.5ZM23 13.5C23 15.43 21.43 17 19.5 17H7.5C5.57 17 4 15.43 4 13.5V4.5C4 3.88 4.16 3.31 4.44 2.8L10.32 8.68C11.2 9.56 12.35 10 13.5 10C14.65 10 15.8 9.56 16.68 8.68L22.56 2.8C22.84 3.3 23 3.88 23 4.5V13.5ZM18 20.5C18 20.78 17.78 21 17.5 21H4.5C2.02 21 0 18.98 0 16.5V5.5C0 5.22 0.22 5 0.5 5C0.78 5 1 5.22 1 5.5V16.5C1 18.43 2.57 20 4.5 20H17.5C17.78 20 18 20.22 18 20.5Z" fill="black"/>
</svg>
