<svg width="18" height="12" viewBox="0 0 18 12" fill="none" xmlns="http://www.w3.org/2000/svg">
<path d="M7.33317 8.49959L11.6582 5.99959L7.33317 3.49959V8.49959ZM16.9665 1.97459C17.0748 2.36626 17.1498 2.89126 17.1998 3.55793C17.2582 4.22459 17.2832 4.79959 17.2832 5.29959L17.3332 5.99959C17.3332 7.82459 17.1998 9.16626 16.9665 10.0246C16.7582 10.7746 16.2748 11.2579 15.5248 11.4663C15.1332 11.5746 14.4165 11.6496 13.3165 11.6996C12.2332 11.7579 11.2415 11.7829 10.3248 11.7829L8.99984 11.8329C5.50817 11.8329 3.33317 11.6996 2.47484 11.4663C1.72484 11.2579 1.2415 10.7746 1.03317 10.0246C0.924837 9.63293 0.849837 9.10793 0.799837 8.44126C0.741504 7.77459 0.716504 7.19959 0.716504 6.69959L0.666504 5.99959C0.666504 4.17459 0.799837 2.83293 1.03317 1.97459C1.2415 1.22459 1.72484 0.74126 2.47484 0.532926C2.8665 0.424593 3.58317 0.349593 4.68317 0.299593C5.7665 0.24126 6.75817 0.21626 7.67484 0.21626L8.99984 0.16626C12.4915 0.16626 14.6665 0.299593 15.5248 0.532926C16.2748 0.74126 16.7582 1.22459 16.9665 1.97459Z" fill="#F89EB8"/>
</svg>
